<svg id="visual" viewBox="0 0 1000 200" width="1000" height="200" xmlns="http://www.w3.org/2000/svg" xmlns:xlink="http://www.w3.org/1999/xlink" version="1.1"><rect x="0" y="0" width="1000" height="200" fill="#333333"></rect><path d="M0 35L143 35L143 65L286 65L286 73L429 73L429 39L571 39L571 59L714 59L714 30L857 30L857 73L1000 73L1000 51L1000 201L1000 201L857 201L857 201L714 201L714 201L571 201L571 201L429 201L429 201L286 201L286 201L143 201L143 201L0 201Z" fill="#009473"></path><path d="M0 60L143 60L143 95L286 95L286 102L429 102L429 60L571 60L571 65L714 65L714 102L857 102L857 102L1000 102L1000 73L1000 201L1000 201L857 201L857 201L714 201L714 201L571 201L571 201L429 201L429 201L286 201L286 201L143 201L143 201L0 201Z" fill="#007a5f"></path><path d="M0 100L143 100L143 94L286 94L286 125L429 125L429 125L571 125L571 89L714 89L714 121L857 121L857 129L1000 129L1000 111L1000 201L1000 201L857 201L857 201L714 201L714 201L571 201L571 201L429 201L429 201L286 201L286 201L143 201L143 201L0 201Z" fill="#01604c"></path><path d="M0 136L143 136L143 138L286 138L286 119L429 119L429 118L571 118L571 143L714 143L714 144L857 144L857 138L1000 138L1000 133L1000 201L1000 201L857 201L857 201L714 201L714 201L571 201L571 201L429 201L429 201L286 201L286 201L143 201L143 201L0 201Z" fill="#034739"></path><path d="M0 174L143 174L143 150L286 150L286 154L429 154L429 181L571 181L571 165L714 165L714 155L857 155L857 151L1000 151L1000 149L1000 201L1000 201L857 201L857 201L714 201L714 201L571 201L571 201L429 201L429 201L286 201L286 201L143 201L143 201L0 201Z" fill="#043027"></path></svg>