<svg id="visual" viewBox="0 0 1000 200" width="1000" height="200" xmlns="http://www.w3.org/2000/svg" xmlns:xlink="http://www.w3.org/1999/xlink" version="1.1"><rect x="0" y="0" width="1000" height="200" fill="#333333"></rect><path d="M0 144L143 144L143 135L286 135L286 162L429 162L429 170L571 170L571 153L714 153L714 170L857 170L857 164L1000 164L1000 164L1000 0L1000 0L857 0L857 0L714 0L714 0L571 0L571 0L429 0L429 0L286 0L286 0L143 0L143 0L0 0Z" fill="#009473"></path><path d="M0 135L143 135L143 102L286 102L286 123L429 123L429 105L571 105L571 99L714 99L714 101L857 101L857 104L1000 104L1000 105L1000 0L1000 0L857 0L857 0L714 0L714 0L571 0L571 0L429 0L429 0L286 0L286 0L143 0L143 0L0 0Z" fill="#007a5f"></path><path d="M0 102L143 102L143 108L286 108L286 93L429 93L429 106L571 106L571 84L714 84L714 75L857 75L857 105L1000 105L1000 68L1000 0L1000 0L857 0L857 0L714 0L714 0L571 0L571 0L429 0L429 0L286 0L286 0L143 0L143 0L0 0Z" fill="#01604c"></path><path d="M0 73L143 73L143 48L286 48L286 73L429 73L429 48L571 48L571 59L714 59L714 69L857 69L857 67L1000 67L1000 43L1000 0L1000 0L857 0L857 0L714 0L714 0L571 0L571 0L429 0L429 0L286 0L286 0L143 0L143 0L0 0Z" fill="#034739"></path><path d="M0 24L143 24L143 35L286 35L286 39L429 39L429 42L571 42L571 22L714 22L714 20L857 20L857 44L1000 44L1000 33L1000 0L1000 0L857 0L857 0L714 0L714 0L571 0L571 0L429 0L429 0L286 0L286 0L143 0L143 0L0 0Z" fill="#043027"></path></svg>